<svg width="300" height="300" viewBox="0 0 300 300" fill="none" xmlns="http://www.w3.org/2000/svg">
<path fill-rule="evenodd" clip-rule="evenodd" d="M117.263 149.605H149.499V210.855C149.499 219.757 156.716 226.973 165.618 226.973C174.52 226.973 181.736 219.757 181.736 210.855V149.605H149.499L149.499 56.1184C149.499 47.2165 142.283 40 133.381 40C124.479 40 117.263 47.2165 117.263 56.1184L117.263 149.605ZM59.2368 149.605H91.473V246.315C91.473 253.437 97.2461 259.21 104.368 259.21C111.489 259.21 117.262 253.437 117.262 246.315V149.605H91.473V127.039C91.473 118.137 84.2565 110.921 75.3546 110.921C66.4526 110.921 59.2362 118.137 59.2362 127.039L59.2362 149.605H27V172.171C27 181.073 34.2165 188.289 43.1184 188.289C52.0203 188.289 59.2368 181.073 59.2368 172.171V149.605ZM181.737 85.1315V149.605H207.526V172.171C207.526 181.073 214.743 188.289 223.645 188.289C232.546 188.289 239.763 181.073 239.763 172.171V149.605H207.526V85.1315C207.526 78.01 201.753 72.2368 194.631 72.2368C187.51 72.2368 181.737 78.0099 181.737 85.1315ZM239.763 120.592V149.605H272V120.592C272 111.69 264.784 104.474 255.882 104.474C246.98 104.474 239.763 111.69 239.763 120.592Z" fill="#CE1459"/>
</svg>
